PathFileType	4	(X/Y/Z)	D:\TRACE\v60_Jaco2_6-2-23\BothDRS_Motion3_7-v60.trc
DataRate	CameraRate	NumFrames	NumMarkers	Units	OrigDataRate	OrigDataStartFrame	OrigNumFrames
100.00	100.00	      17	9	mm	100.00	1	      7000
Frame#	Time	front left toe			Front right toe			aft left toe			aft right toe			Arm			FL body			FR body			AL Body			AR Body			
		X1	Y1	Z1	X2	Y2	Z2	X3	Y3	Z3	X4	Y4	Z4	X5	Y5	Z5	X6	Y6	Z6	X7	Y7	Z7	X8	Y8	Z8	X9	Y9	Z9	

1	0.000	-226.45497	65.36731	-203.68347	221.41702	71.27013	-255.02774	-96.38689	-43.25840	393.57816	280.36624	-41.19506	365.72650	41.62719	1254.35657	-147.12752	-89.63000	641.56323	-363.53326	67.26923	640.55615	-386.53171	48.36367	479.61423	557.45294	198.58104	468.65021	532.88953	
2	0.010	-226.48940	65.37916	-203.69800	221.42853	71.28101	-255.02835	-96.31748	-43.30685	393.57333	280.32285	-41.21106	365.74829	41.63271	1254.33008	-147.11031	-89.60338	641.54321	-363.51450	67.29733	640.51477	-386.48663	48.35785	479.59488	557.41785	198.55927	468.62692	532.90222	
3	0.020	-226.45844	65.35384	-203.70660	221.42178	71.27464	-255.02800	-96.33856	-43.30749	393.56940	280.33136	-41.23586	365.73340	41.63538	1254.29822	-147.12166	-89.65192	641.55927	-363.51382	67.25083	640.56342	-386.56012	48.38232	479.58096	557.47351	198.56039	468.64294	532.89099	
4	0.030	-226.48302	65.37579	-203.68610	221.41783	71.27075	-255.02769	-96.32629	-43.30001	393.57132	280.34631	-41.21746	365.71320	41.64460	1254.32825	-147.15521	-89.65277	641.54108	-363.52939	67.27440	640.57104	-386.57095	48.38639	479.58502	557.45703	198.56496	468.64847	532.90045	
5	0.040	-226.46277	65.36983	-203.68153	221.41002	71.26553	-255.04095	-96.28625	-43.30936	393.56506	280.33679	-41.23651	365.76764	41.69188	1254.34705	-147.12785	-89.67088	641.55090	-363.51678	67.27441	640.52972	-386.57059	48.38314	479.60257	557.44299	198.54959	468.65118	532.89758	
6	0.050	-226.47810	65.36094	-203.68607	221.43036	71.28349	-255.03252	-96.25288	-43.33225	393.55466	280.38281	-41.21483	365.73975	41.67886	1254.34729	-147.14636	-89.65100	641.57330	-363.53046	67.26447	640.57288	-386.56464	48.38666	479.62268	557.43372	198.56445	468.64282	532.90417	
7	0.060	-226.45587	65.37688	-203.69202	221.44061	71.29210	-255.02879	-96.36781	-43.28006	393.57220	280.34970	-41.23048	365.78601	41.64040	1254.35413	-147.09329	-89.66488	641.55560	-363.53375	67.31854	640.60046	-386.59979	48.43470	479.61841	557.45563	198.54915	468.65915	532.94739	
8	0.070	-226.47319	65.36620	-203.68021	221.42087	71.27362	-255.02785	-96.40521	-43.27388	393.57251	280.33899	-41.22004	365.79498	41.64044	1254.29456	-147.10176	-89.61936	641.53766	-363.52753	67.31054	640.53949	-386.58539	48.32200	479.64368	557.43433	198.56418	468.66113	532.91907	
9	0.080	-226.45235	65.35271	-203.66289	221.44537	71.29662	-255.02907	-96.38280	-43.29631	393.58789	280.33771	-41.22164	365.71997	41.65631	1254.30103	-147.09863	-89.65517	641.54596	-363.53888	67.32085	640.55780	-386.57224	48.30438	479.61459	557.41461	198.56099	468.64911	532.91669	
10	0.090	-226.46103	65.36543	-203.68381	221.38997	71.24507	-255.02660	-96.34021	-43.29269	393.57361	280.31082	-41.21995	365.73761	41.68294	1254.33154	-147.10727	-89.68169	641.56842	-363.51456	67.27267	640.54974	-386.56046	48.33891	479.60767	557.43616	198.53221	468.64459	532.90674	
11	0.100	-226.47734	65.37157	-203.69385	221.42325	71.27679	-255.03302	-96.35917	-43.28572	393.55954	280.32159	-41.22336	365.73233	41.60476	1254.34839	-147.15520	-89.63094	641.56573	-363.54547	67.29223	640.54175	-386.58142	48.38424	479.61517	557.42865	198.55724	468.65427	532.88977	
12	0.110	-226.45683	65.37122	-203.69249	221.41570	71.26890	-255.02768	-96.37774	-43.28005	393.57693	280.28598	-41.24453	365.71344	41.61398	1254.33643	-147.14029	-89.65627	641.54565	-363.53568	67.29736	640.56250	-386.59290	48.33080	479.61972	557.43713	198.53310	468.67953	532.88373	
13	0.120	-226.46852	65.35935	-203.67810	221.43134	71.28348	-255.02840	-96.34690	-43.30403	393.56604	280.34177	-41.20170	365.71429	41.67863	1254.29309	-147.13792	-89.62870	641.54639	-363.55084	67.28878	640.54785	-386.55655	48.43031	479.58127	557.45184	198.53751	468.63043	532.88074	
14	0.130	-226.46277	65.36929	-203.66486	221.41635	71.26952	-255.02771	-96.30742	-43.30858	393.56665	280.34268	-41.22572	365.72482	41.62768	1254.31018	-147.11685	-89.67043	641.54657	-363.53815	67.27346	640.57996	-386.60172	48.33564	479.62424	557.45178	198.52901	468.65814	532.91003	
15	0.140	-226.45860	65.35855	-203.67902	221.40614	71.26006	-255.02728	-96.38991	-43.29892	393.58356	280.38498	-41.21807	365.73709	41.60487	1254.30322	-147.13660	-89.65549	641.54950	-363.52325	67.26993	640.55127	-386.54980	48.38405	479.60712	557.46155	198.56410	468.64001	532.92181	
16	0.150	-226.47099	65.35510	-203.68661	221.41792	71.27115	-255.02788	-96.34882	-43.28789	393.57324	280.35425	-41.20154	365.72983	41.69556	1254.33826	-147.13420	-89.64182	641.54724	-363.53229	67.33568	640.52899	-386.56635	48.40805	479.59973	557.45081	198.56721	468.65350	532.90527	
17	0.160	-226.45815	65.38324	-203.69821	221.40125	71.25816	-255.04465	-96.32944	-43.29509	393.56479	280.34460	-41.21441	365.75015	41.71251	1254.32349	-147.15845	-89.70603	641.59369	-363.49710	67.28722	640.58704	-386.61780	48.34188	479.66125	557.45325	198.56828	468.65012	532.89398	
